<svg xmlns="http://www.w3.org/2000/svg" viewBox="0 0 1151 676" width="1156" height="679">
	<defs>
		<linearGradient id="grd1" gradientUnits="userSpaceOnUse"  x1="477.03" y1="654.42" x2="477.03" y2="10.29">
			<stop offset="0" stop-color="#808080" stop-opacity="0.25" />
			<stop offset="0.54" stop-color="#808080" stop-opacity="0.12" />
			<stop offset="1" stop-color="#808080" stop-opacity="0.1" />
		</linearGradient>
	</defs>
	<style>
		tspan { white-space:pre }
		.shp0 { opacity: 0.102;fill: #6c63ff } 
		.shp1 { fill: none;stroke: #535461;stroke-width: 2 } 
		.shp2 { fill: #6c63ff } 
		.shp3 { opacity: 0.251;fill: #000000 } 
		.shp4 { fill: #464353 } 
		.shp5 { fill: #514e7f } 
		.shp6 { opacity: 0.102;fill: #000000 } 
		.shp7 { opacity: 0.502;fill: #6c63ff } 
		.shp8 { fill: url(#grd1) } 
		.shp9 { fill: #3f3d56 } 
		.shp10 { fill: #a1616a } 
		.shp11 { opacity: 0.051;fill: #000000 } 
		.shp12 { fill: #000000 } 
	</style>
	<path id="Layer" class="shp0" d="M1119.63 627.5C1118.55 628.29 1117.44 629.05 1116.32 629.8C1115.29 630.49 1114.24 631.17 1113.19 631.82C1112.13 632.48 1111.07 633.12 1109.99 633.74C1108.91 634.36 1107.83 634.97 1106.73 635.55C1105.63 636.14 1104.53 636.7 1103.41 637.25C1079.95 648.95 1051.05 654.66 1022.89 658.54C959.74 667.26 895.26 668.95 831.05 670.61C657.58 675.12 483.65 679.61 310.62 669.23C242.26 665.13 172.37 658.23 110.41 637.23C101.54 634.22 92.83 630.91 84.29 627.29C67.03 619.94 50.45 611.01 36.66 600.37C23.66 590.37 13.2 578.87 6.92 565.81C-6.18 538.59 0.75 508.02 15.7 481.35C17.26 478.65 18.87 475.97 20.53 473.32C22.19 470.68 23.89 468.06 25.64 465.47C27.4 462.89 29.19 460.33 31.04 457.81C32.88 455.29 34.77 452.8 36.7 450.35C48.22 435.33 60.93 420.78 72.55 405.78C113.87 352.36 140.83 284.89 102.69 230.17C91.69 214.45 75.88 200.65 66.95 184.24C55.54 163.24 56.43 139.93 60.06 117.24C60.52 114.38 61.06 111.54 61.55 108.7C67.78 75.13 79.38 38.95 115.29 17.99C152.59 -3.79 205.54 -2.69 251.85 5.1C323.85 17.22 390.27 42.53 457.34 65.39C524.41 88.25 594.66 109.13 668.42 111.39C733.54 113.39 809.51 98.52 852.73 59.93C894.73 22.45 973.63 19.6 1030.53 42.24C1069.53 57.78 1098.68 85.77 1110.97 117.24C1111.59 118.81 1112.17 120.4 1112.7 122.01C1113.24 123.61 1113.73 125.23 1114.17 126.87C1114.62 128.5 1115.02 130.14 1115.38 131.79C1115.74 133.45 1116.05 135.11 1116.32 136.78C1116.57 138.3 1116.78 139.83 1116.94 141.36C1117.11 142.89 1117.24 144.43 1117.32 145.97C1117.4 147.51 1117.44 149.05 1117.44 150.59C1117.44 152.13 1117.4 153.67 1117.32 155.21C1117.15 158.21 1116.82 161.26 1116.32 164.21C1106.82 226.34 1038.41 275.34 996.83 330.84C976.51 357.95 962.16 390.51 976.13 419.74C997.44 464.28 1071.55 480.11 1116.32 513.27C1118.41 514.76 1120.44 516.33 1122.41 517.97C1124.38 519.61 1126.28 521.33 1128.12 523.11C1129.96 524.9 1131.74 526.75 1133.44 528.67C1135.14 530.59 1136.77 532.57 1138.32 534.61C1159.97 564.13 1151.96 603.97 1119.63 627.5Z" />
	<path id="Layer" class="shp0" d="M537.69 659.86C388.58 659.86 268.05 655.77 268.05 650.7C268.05 645.63 388.58 641.54 537.69 641.54C686.8 641.54 807.33 645.63 807.33 650.7C807.33 655.77 686.8 659.86 537.69 659.86Z" />
	<g id="55bfdb31-36b5-4718-97dd-773b4157bdc7">
		<path id="Layer" class="shp1" d="M751.92 644.6C751.92 644.6 809.92 571.13 805.43 498.1C803.54 467.44 811.09 436.92 827.96 411.25C829.96 408.21 832.04 405.22 834.18 402.28C836.32 399.33 838.53 396.44 840.81 393.6C843.08 390.76 845.42 387.97 847.83 385.23C850.23 382.5 852.69 379.82 855.22 377.2" />
		<path id="Layer" class="shp2" d="M852.65 331.15C848.55 341.37 855.14 378.41 855.14 378.41C855.14 378.41 885.53 356.22 889.63 346.01C891.59 341.1 891.53 335.62 889.46 330.75C887.38 325.89 883.46 322.06 878.56 320.09C873.65 318.12 868.17 318.18 863.3 320.25C858.44 322.33 854.61 326.25 852.64 331.15L852.65 331.15Z" />
		<path id="Layer" class="shp2" d="M799.36 375.44C801.47 386.24 827.14 413.75 827.14 413.75C827.14 413.75 840.59 378.61 838.48 367.81C837.41 362.68 834.37 358.17 830 355.26C825.63 352.36 820.3 351.29 815.15 352.3C810 353.3 805.46 356.29 802.5 360.63C799.55 364.96 798.42 370.28 799.36 375.44L799.36 375.44Z" />
		<path id="Layer" class="shp2" d="M761.87 472.64C769.14 480.9 805.18 491.64 805.18 491.64C805.18 491.64 799.05 454.52 791.78 446.26C788.29 442.3 783.36 439.88 778.09 439.55C772.82 439.21 767.63 440.98 763.66 444.47C759.7 447.96 757.28 452.89 756.95 458.16C756.61 463.43 758.38 468.62 761.87 472.59L761.87 472.64Z" />
		<path id="Layer" class="shp2" d="M750.05 552.57C755.82 561.94 789.53 578.67 789.53 578.67C789.53 578.67 789.76 541.04 783.99 531.67C781.24 527.13 776.79 523.87 771.62 522.62C766.46 521.38 761.02 522.24 756.49 525.02C751.97 527.81 748.75 532.28 747.54 537.46C746.33 542.63 747.23 548.07 750.05 552.57L750.05 552.57Z" />
		<path id="Layer" class="shp2" d="M865.22 431.33C855.03 435.5 817.95 429.16 817.95 429.16C817.95 429.16 839.95 398.62 850.11 394.45C854.98 392.54 860.41 392.62 865.22 394.68C870.03 396.74 873.84 400.61 875.82 405.45C877.81 410.29 877.81 415.72 875.82 420.56C873.84 425.4 870.03 429.27 865.22 431.33L865.22 431.33Z" />
		<path id="Layer" class="shp2" d="M850.22 524.63C839.22 525.57 805.76 508.42 805.76 508.42C805.76 508.42 835.87 485.86 846.83 484.92C852.15 484.38 857.46 485.99 861.57 489.4C865.69 492.81 868.26 497.73 868.71 503.05C869.17 508.38 867.47 513.66 863.99 517.72C860.51 521.77 855.55 524.26 850.22 524.63L850.22 524.63Z" />
		<path id="Layer" class="shp2" d="M823.14 613.32C812.49 616.09 776.59 604.85 776.59 604.85C776.59 604.85 802.45 577.53 813.1 574.75C818.16 573.58 823.47 574.44 827.91 577.13C832.35 579.82 835.56 584.14 836.87 589.17C838.17 594.19 837.46 599.53 834.89 604.04C832.32 608.55 828.09 611.88 823.1 613.32L823.14 613.32Z" />
		<path id="Layer" class="shp3" d="M852.65 331.15C848.55 341.37 855.14 378.41 855.14 378.41C855.14 378.41 885.53 356.22 889.63 346.01C891.59 341.1 891.53 335.62 889.46 330.75C887.38 325.89 883.46 322.06 878.56 320.09C873.65 318.12 868.17 318.18 863.3 320.25C858.44 322.33 854.61 326.25 852.64 331.15L852.65 331.15Z" />
		<path id="Layer" class="shp3" d="M799.36 375.44C801.47 386.24 827.14 413.75 827.14 413.75C827.14 413.75 840.59 378.61 838.48 367.81C837.41 362.68 834.37 358.17 830 355.26C825.63 352.36 820.3 351.29 815.15 352.3C810 353.3 805.46 356.29 802.5 360.63C799.55 364.96 798.42 370.28 799.36 375.44L799.36 375.44Z" />
		<path id="Layer" class="shp3" d="M761.87 472.64C769.14 480.9 805.18 491.64 805.18 491.64C805.18 491.64 799.05 454.52 791.78 446.26C788.29 442.3 783.36 439.88 778.09 439.55C772.82 439.21 767.63 440.98 763.66 444.47C759.7 447.96 757.28 452.89 756.95 458.16C756.61 463.43 758.38 468.62 761.87 472.59L761.87 472.64Z" />
		<path id="Layer" class="shp3" d="M750.05 552.57C755.82 561.94 789.53 578.67 789.53 578.67C789.53 578.67 789.76 541.04 783.99 531.67C781.24 527.13 776.79 523.87 771.62 522.62C766.46 521.38 761.02 522.24 756.49 525.02C751.97 527.81 748.75 532.28 747.54 537.46C746.33 542.63 747.23 548.07 750.05 552.57L750.05 552.57Z" />
		<path id="Layer" class="shp3" d="M865.22 431.33C855.03 435.5 817.95 429.16 817.95 429.16C817.95 429.16 839.95 398.62 850.11 394.45C854.98 392.54 860.41 392.62 865.22 394.68C870.03 396.74 873.84 400.61 875.82 405.45C877.81 410.29 877.81 415.72 875.82 420.56C873.84 425.4 870.03 429.27 865.22 431.33L865.22 431.33Z" />
		<path id="Layer" class="shp3" d="M850.22 524.63C839.22 525.57 805.76 508.42 805.76 508.42C805.76 508.42 835.87 485.86 846.83 484.92C852.15 484.38 857.46 485.99 861.57 489.4C865.69 492.81 868.26 497.73 868.71 503.05C869.17 508.38 867.47 513.66 863.99 517.72C860.51 521.77 855.55 524.26 850.22 524.63L850.22 524.63Z" />
		<path id="Layer" class="shp3" d="M823.14 613.32C812.49 616.09 776.59 604.85 776.59 604.85C776.59 604.85 802.45 577.53 813.1 574.75C818.16 573.58 823.47 574.44 827.91 577.13C832.35 579.82 835.56 584.14 836.87 589.17C838.17 594.19 837.46 599.53 834.89 604.04C832.32 608.55 828.09 611.88 823.1 613.32L823.14 613.32Z" />
		<path id="Layer" class="shp1" d="M752.42 641.53C752.42 641.53 835.22 597.88 860.7 529.29C871.4 500.49 890.7 475.65 916.49 459.02C919.56 457.05 922.67 455.16 925.82 453.34C928.97 451.51 932.16 449.76 935.39 448.09C938.63 446.41 941.9 444.81 945.2 443.28C948.51 441.76 951.85 440.3 955.22 438.93" />
		<path id="Layer" class="shp2" d="M971.52 395.78C963.64 403.45 954.65 439.99 954.65 439.99C954.65 439.99 991.42 431.99 999.31 424.35C1003.02 420.65 1005.11 415.63 1005.15 410.39C1005.19 405.16 1003.16 400.11 999.51 396.36C995.86 392.6 990.87 390.44 985.63 390.33C980.39 390.22 975.32 392.18 971.52 395.78L971.52 395.78Z" />
		<path id="Layer" class="shp2" d="M904.86 414.69C902.41 425.42 914.73 460.97 914.73 460.97C914.73 460.97 941.26 434.3 943.73 423.57C945.03 418.37 944.18 412.88 941.38 408.31C938.58 403.75 934.06 400.5 928.84 399.31C923.61 398.12 918.13 399.07 913.63 401.97C909.12 404.86 905.97 409.45 904.88 414.69L904.86 414.69Z" />
		<path id="Layer" class="shp2" d="M831.22 488.36C834.52 498.86 863.1 523.36 863.1 523.36C863.1 523.36 872.54 486.94 869.24 476.44C867.74 471.29 864.23 466.96 859.5 464.43C854.77 461.9 849.22 461.39 844.1 463C838.99 464.62 834.74 468.23 832.32 473.02C829.9 477.8 829.51 483.36 831.24 488.44L831.22 488.36Z" />
		<path id="Layer" class="shp2" d="M788 556.65C789.48 567.55 813.51 596.5 813.51 596.5C813.51 596.5 828.97 562.2 827.51 551.29C826.8 546.05 824.04 541.31 819.83 538.11C815.62 534.91 810.32 533.51 805.08 534.22C799.84 534.93 795.1 537.69 791.9 541.9C788.7 546.11 787.3 551.41 788.01 556.65L788 556.65Z" />
		<path id="Layer" class="shp2" d="M942.37 492.45C931.37 492.14 900.03 471.31 900.03 471.31C900.03 471.31 932.5 452.31 943.5 452.61C948.73 452.83 953.67 455.11 957.24 458.94C960.81 462.77 962.72 467.85 962.58 473.09C962.43 478.32 960.22 483.29 956.44 486.91C952.66 490.53 947.61 492.52 942.37 492.45L942.37 492.45Z" />
		<path id="Layer" class="shp2" d="M890.85 571.67C880.45 568.08 856.78 538.84 856.78 538.84C856.78 538.84 893.44 530.41 903.85 534C908.73 535.81 912.72 539.46 914.94 544.17C917.17 548.87 917.47 554.27 915.77 559.19C914.07 564.12 910.51 568.18 905.85 570.51C901.2 572.84 895.81 573.26 890.85 571.67L890.85 571.67Z" />
		<path id="Layer" class="shp2" d="M830.22 641.78C819.36 640 791.08 615.18 791.08 615.18C791.08 615.18 825.8 600.67 836.66 602.45C841.8 603.39 846.37 606.3 849.38 610.57C852.39 614.84 853.6 620.12 852.76 625.28C851.92 630.43 849.08 635.05 844.86 638.14C840.65 641.23 835.39 642.53 830.22 641.78L830.22 641.78Z" />
	</g>
	<path id="Layer" class="shp4" d="M759.68 647.63L750.81 647.63L685.93 312.7L677.61 647.63L668.19 647.63L657.65 313.26L594.43 647.63L584.45 647.63L627.42 303.38L628.82 292.19L713.11 282.76L715.73 303.38L759.68 647.63L759.68 647.63Z" />
	<path id="Layer" class="shp4" d="M526.98 215.62L580.63 215.62L580.63 248.89L526.98 248.89L526.98 215.62Z" />
	<path id="Layer" class="shp4" d="M838.27 201.07L870.71 187.97L877.82 187.97C878.33 187.97 878.84 188.07 879.32 188.27C879.79 188.46 880.22 188.75 880.58 189.12C880.95 189.48 881.24 189.91 881.43 190.38C881.63 190.86 881.73 191.37 881.73 191.88L881.73 283.24C881.73 283.75 881.63 284.26 881.43 284.74C881.24 285.21 880.95 285.64 880.58 286C880.22 286.37 879.79 286.66 879.32 286.85C878.84 287.05 878.33 287.15 877.82 287.15L870.71 287.15L838.27 273.64L838.27 201.07Z" />
	<path id="Layer" class="shp4" d="M771.94 205.23L838.27 205.23L838.27 269.48L771.94 269.48L771.94 205.23Z" />
	<path id="Layer" class="shp5" d="M656.8 84.55L699.5 84.55L699.5 92.31L656.8 92.31L656.8 84.55Z" />
	<path id="Layer" class="shp5" d="M608.08 94.6L728.27 94.6L728.27 182.35L608.08 182.35L608.08 94.6Z" />
	<path id="Layer" class="shp6" d="M608.08 171.96L728.27 171.96L728.27 182.36L608.08 182.36L608.08 171.96Z" />
	<path id="Layer" class="shp6" d="M770.91 205.23L773.6 205.23L773.6 269.48L770.91 269.48L770.91 205.23Z" />
	<path id="Layer" class="shp6" d="M562.33 215.62L580.63 215.62L580.63 248.89L562.33 248.89L562.33 215.62Z" />
	<path id="Layer" class="shp6" d="M715.73 303.38L627.42 303.38L628.82 292.19L713.11 282.76L715.73 303.38L715.73 303.38Z" />
	<path id="Layer" class="shp5" d="M574.69 173.62L761.23 173.62C767.15 173.62 771.93 178.4 771.93 184.32L771.93 291.01C771.93 296.93 767.15 301.71 761.23 301.71L574.69 301.71C568.77 301.71 563.99 296.93 563.99 291.01L563.99 184.32C563.99 178.4 568.77 173.62 574.69 173.62Z" />
	<path id="Layer" class="shp5" d="M837.64 201.07L838.27 201.07L838.27 273.64L837.64 273.64C836.96 273.64 836.28 273.51 835.65 273.24C835.02 272.98 834.45 272.6 833.97 272.12C833.49 271.64 833.11 271.07 832.85 270.44C832.58 269.81 832.45 269.13 832.45 268.45L832.45 206.26C832.45 205.58 832.58 204.9 832.85 204.27C833.11 203.64 833.49 203.07 833.97 202.59C834.45 202.11 835.02 201.73 835.65 201.47C836.28 201.2 836.96 201.07 837.64 201.07Z" />
	<path id="Layer" class="shp5" d="M870.71 188L877.44 188C878 188 878.56 188.11 879.08 188.33C879.6 188.54 880.08 188.86 880.47 189.26C880.87 189.65 881.19 190.13 881.4 190.65C881.62 191.17 881.73 191.73 881.73 192.29L881.73 282.91C881.73 283.47 881.62 284.03 881.4 284.55C881.19 285.07 880.87 285.55 880.47 285.94C880.08 286.34 879.6 286.66 879.08 286.87C878.56 287.09 878 287.2 877.44 287.2L870.71 287.2L870.71 188Z" />
	<path id="Layer" class="shp6" d="M526.98 215.62L536.55 215.62L536.55 248.89L526.98 248.89L526.98 215.62Z" />
	<path id="Layer" class="shp5" d="M523.37 205.23L527.68 205.23C531.66 205.23 534.88 208.45 534.88 212.43L534.88 254.59C534.88 258.57 531.66 261.79 527.68 261.79L523.37 261.79C519.39 261.79 516.17 258.57 516.17 254.59L516.17 212.43C516.17 208.45 519.39 205.23 523.37 205.23Z" />
	<path id="Layer" class="shp4" d="M608.08 154.49C574.96 154.49 548.19 127.72 548.19 94.6C548.19 61.48 574.96 34.71 608.08 34.71C641.2 34.71 667.97 61.48 667.97 94.6C667.97 127.72 641.2 154.49 608.08 154.49Z" />
	<path id="Layer" class="shp2" d="M608.08 139.52C583.24 139.52 563.16 119.44 563.16 94.6C563.16 69.76 583.24 49.68 608.08 49.68C632.92 49.68 653 69.76 653 94.6C653 119.44 632.92 139.52 608.08 139.52Z" />
	<path id="Layer" class="shp4" d="M719.12 139.52C694.97 139.52 675.45 120 675.45 95.85C675.45 71.7 694.97 52.18 719.12 52.18C743.27 52.18 762.79 71.7 762.79 95.85C762.79 120 743.27 139.52 719.12 139.52Z" />
	<path id="Layer" class="shp2" d="M719.12 128.6C701.01 128.6 686.37 113.96 686.37 95.85C686.37 77.74 701.01 63.1 719.12 63.1C737.23 63.1 751.87 77.74 751.87 95.85C751.87 113.96 737.23 128.6 719.12 128.6Z" />
	<path id="Layer" class="shp2" d="M715.73 198.43C712.55 198.43 709.98 195.86 709.98 192.68C709.98 189.5 712.55 186.93 715.73 186.93C718.91 186.93 721.48 189.5 721.48 192.68C721.48 195.86 718.91 198.43 715.73 198.43Z" />
	<path id="Layer" class="shp7" d="M734.02 198.43C730.84 198.43 728.27 195.86 728.27 192.68C728.27 189.5 730.84 186.93 734.02 186.93C737.2 186.93 739.77 189.5 739.77 192.68C739.77 195.86 737.2 198.43 734.02 198.43Z" />
	<path id="Layer" fill-rule="evenodd" class="shp8" d="M664.55 258.49C654.31 269.19 643.26 249.3 636.62 233.59C636.32 232.88 636.04 232.18 635.75 231.49C635.66 232.22 635.59 232.95 635.52 233.68C635.46 234.41 635.4 235.14 635.36 235.88C635.31 236.61 635.28 237.34 635.26 238.08C635.23 238.81 635.22 239.55 635.22 240.28C635.22 240.28 621.21 227.75 618.88 222.4C616.55 217.05 594.88 219.24 594.88 219.24C594.88 219.24 580.21 212.73 577.88 208.36C575.55 203.99 561.88 215.28 557.55 211.99C553.22 208.7 513.88 191.53 513.88 191.53L512.22 193.99C512.22 193.99 501.44 220.78 503.83 226.78C506.22 232.78 503.49 266.44 501.66 268.11C499.83 269.78 504.83 336.95 513.83 336.95C513.83 336.95 489.17 353.65 481.83 348.65C479.46 347.03 479.63 340.24 480.63 331.4L478.63 331.74L474.88 332.36L468.37 333.43C468.6 333.94 468.84 334.45 469.1 334.94C469.36 335.44 469.64 335.93 469.93 336.41C470.22 336.88 470.53 337.35 470.86 337.81C471.18 338.27 471.52 338.71 471.87 339.15C476.87 344.98 471.87 351.98 471.87 351.98C471.87 351.98 473.54 367.04 478.54 380.4C483.54 393.76 485.86 447.57 483.2 457.93C480.54 468.29 480.54 480.65 480.54 480.65C480.54 480.65 480.2 503.04 458.2 511.73L455.57 512.78L421.34 549.59C421.34 549.66 421.34 549.74 421.34 549.82C421.37 550.36 421.43 550.91 421.43 551.48C422.8 577.21 423.19 623.35 423.19 623.35L417.86 624.54L417.86 645.54C417.86 645.54 413.36 653.93 397.86 654.31C393.34 654.42 390.57 652.08 388.93 648.72C386.74 644.33 386.52 638.18 386.74 633.44C386.78 632.76 386.82 632.08 386.88 631.44L384.19 632.04L377.53 605.63C377.29 605.3 377.06 604.96 376.83 604.61C376.61 604.27 376.39 603.92 376.18 603.57C375.97 603.22 375.76 602.86 375.56 602.5C375.36 602.14 375.17 601.78 374.99 601.41C374.77 600.99 374.56 600.55 374.35 600.1L364.53 610.66C364.53 610.66 362.84 608.43 360.09 604.96L358.83 606.96C355.77 611.81 351.54 618.68 348.98 623.81C344.61 632.58 351.36 640.72 351.36 640.72C352.86 645.79 352.87 648.91 352.2 650.79C350.81 654.69 346.48 653.26 346.48 653.26C333.71 651.85 325.66 619.38 327.59 611.85C327.61 611.75 327.64 611.64 327.67 611.54C327.71 611.44 327.74 611.34 327.79 611.25C327.83 611.15 327.88 611.06 327.93 610.96C327.99 610.87 328.05 610.78 328.11 610.7C328.24 610.53 328.36 610.35 328.47 610.17C328.58 609.99 328.68 609.8 328.76 609.6C328.84 609.4 328.92 609.2 328.97 609C329.03 608.79 329.08 608.58 329.11 608.37C329.95 603.67 325.95 596.74 325.95 596.74L318.58 599.62L311.83 578.83L316.09 573.57L321.6 566.78L322.81 565.23C322.58 565.08 322.34 564.94 322.1 564.81C321.86 564.68 321.61 564.56 321.36 564.44C321.11 564.33 320.85 564.23 320.6 564.13C320.34 564.04 320.08 563.95 319.81 563.88C319.81 563.88 341.5 541.48 361.72 524.58C361.69 523.94 361.62 523.29 361.62 522.66C360.5 499.54 360.81 481 360.81 481C360.81 481 365.48 458.27 360.81 449.59C357.21 442.93 355.99 432.86 355.62 428.59C355.48 427.34 355.48 426.59 355.48 426.59L355.48 396.84C355.48 396.84 341.48 380.47 343.48 360.42C345.48 340.37 341.14 341.04 341.14 341.04C341.14 341.04 341.2 332.08 341.64 322.99C340.28 324.85 339.48 325.99 339.48 325.99L338.48 324.56C337.84 325.47 337.48 326 337.48 326C337.48 326 334.9 322.25 331.26 316.88L331.14 316.97C331.03 317.04 330.92 317.11 330.81 317.17C330.7 317.23 330.59 317.29 330.47 317.34C330.35 317.39 330.23 317.44 330.11 317.48C329.99 317.52 329.86 317.55 329.74 317.58C326.66 318.42 320.59 317.81 312.14 316.97C302.14 315.97 310.48 295.25 310.48 295.25L313.11 292.54L314.31 291.3C310.22 284.88 307.22 279.82 307.22 278.88C307.32 275.87 295.2 259.71 294.2 256.04C293.2 252.37 289.87 245.69 285.2 235.66C280.53 225.63 287.2 211.88 287.2 211.88C287.2 211.88 307.52 183.19 306.94 179.18C306.36 175.17 319.2 172.83 319.2 172.83C319.2 172.83 323.54 165.12 326.87 164.48C330.2 163.84 334.2 154.48 334.2 154.48C331.53 150.15 338.86 150.48 338.86 150.48C338.86 150.48 346.19 148.49 344.86 145.48C343.53 142.47 353.54 140.46 353.2 136.13C352.86 131.8 359.2 131.13 359.2 131.13C359.2 131.13 368.2 134.14 367.2 131.13C366.2 128.12 381.2 126.44 381.2 126.44C381.2 126.44 388.53 130.11 392.53 126.44C396.53 122.77 412.88 122.77 412.88 122.77C412.88 122.77 409.53 110.07 412.88 106.39C413.67 105.53 415.67 105.99 418.26 107.18C418.58 104.71 418.86 102.26 419.09 99.98C419.13 99.66 419.19 99.36 419.19 99.05C418.62 98.47 418.08 97.87 417.55 97.24C417.03 96.62 416.53 95.97 416.06 95.31C415.59 94.65 415.15 93.97 414.73 93.27C414.31 92.57 413.92 91.86 413.56 91.13C413.27 90.54 413 89.93 412.74 89.32C412.45 89.38 412.16 89.44 411.86 89.49C411.57 89.54 411.28 89.58 410.98 89.61C410.69 89.65 410.39 89.67 410.09 89.69C409.79 89.71 409.5 89.72 409.2 89.72C407.1 89.71 405.11 89.16 403.9 87.52C403.87 87.47 403.83 87.43 403.8 87.38C403.77 87.33 403.74 87.29 403.71 87.24C403.68 87.19 403.65 87.14 403.62 87.09C403.59 87.04 403.57 86.99 403.54 86.94C403.53 86.92 403.52 86.91 403.51 86.89C403.5 86.88 403.5 86.86 403.49 86.85C403.48 86.83 403.47 86.81 403.46 86.8C403.45 86.78 403.45 86.77 403.44 86.75C403.38 86.61 403.31 86.47 403.26 86.33L403.17 86.08C403.13 85.95 403.06 85.82 403.06 85.69L403 85.4C402.94 85.29 403 85.3 402.94 85.05C402.88 84.8 402.88 84.54 402.88 84.29C402.88 84.24 402.88 84.32 402.88 84.15C402.88 83.98 402.88 83.68 402.88 83.51C402.93 83.33 402.93 83.15 402.93 82.96C402.98 82.55 403.04 82.14 403.13 81.74C403.58 79.78 404.43 77.96 404.83 75.96C404.87 75.77 404.9 75.58 404.92 75.39C404.94 75.2 404.95 75.01 404.95 74.82C404.95 74.63 404.94 74.44 404.92 74.25C404.9 74.06 404.87 73.87 404.83 73.68C404.82 73.63 404.81 73.59 404.79 73.54C404.78 73.49 404.77 73.45 404.75 73.4C404.73 73.35 404.72 73.31 404.7 73.26C404.68 73.22 404.66 73.17 404.64 73.13L404.58 73.01C404.56 72.97 404.54 72.92 404.51 72.88C404.49 72.83 404.46 72.79 404.44 72.75C404.41 72.71 404.38 72.67 404.35 72.63C404.32 72.59 404.29 72.55 404.26 72.51C403.13 71.25 400.98 71.51 399.6 70.51C399.56 70.48 399.52 70.45 399.48 70.41C399.44 70.38 399.4 70.34 399.36 70.31C399.32 70.27 399.28 70.24 399.25 70.2C399.21 70.16 399.17 70.12 399.14 70.08C399.13 70.07 399.12 70.05 399.11 70.04C399.1 70.03 399.09 70.02 399.08 70C399.07 69.99 399.06 69.97 399.05 69.96C399.04 69.95 399.03 69.93 399.02 69.92C399 69.89 398.98 69.86 398.96 69.84C398.94 69.81 398.91 69.78 398.89 69.75C398.87 69.72 398.86 69.69 398.84 69.66C398.82 69.63 398.8 69.6 398.78 69.57L398.67 69.35C398.66 69.32 398.64 69.29 398.63 69.26C398.61 69.24 398.6 69.21 398.59 69.18C398.57 69.15 398.56 69.12 398.55 69.09C398.53 69.06 398.52 69.03 398.51 69L398.44 68.75C398.4 68.63 398.34 68.47 398.34 68.38C398.34 68.29 398.34 68.23 398.34 68.11C398.34 67.99 398.34 67.86 398.34 67.73C398.34 67.71 398.34 67.68 398.34 67.66C398.34 67.64 398.34 67.61 398.34 67.59C398.34 67.57 398.34 67.54 398.34 67.52C398.34 67.5 398.34 67.47 398.34 67.45C398.34 67.32 398.34 67.14 398.34 67.05C398.34 66.96 398.34 66.95 398.34 66.79C398.34 66.63 398.34 66.4 398.34 66.33C398.34 66.26 398.34 66.19 398.34 66.12C398.35 66.06 398.35 66.01 398.36 65.95C398.37 65.9 398.38 65.84 398.39 65.79C398.4 65.73 398.41 65.68 398.42 65.62C398.44 65.57 398.45 65.51 398.46 65.46C398.85 63.67 399.6 61.89 399.37 60.07C399.32 59.99 399.32 59.92 399.32 59.85C398.9 57.43 396.88 55.59 395.81 53.36C395.77 53.28 395.73 53.2 395.7 53.12C395.66 53.03 395.63 52.95 395.59 52.87C395.56 52.78 395.53 52.7 395.5 52.62C395.47 52.53 395.44 52.45 395.41 52.36C395.38 52.27 395.33 52.18 395.33 52.08C395.31 52.01 395.29 51.93 395.27 51.86C395.25 51.79 395.24 51.72 395.22 51.64C395.2 51.57 395.19 51.5 395.17 51.42C395.16 51.35 395.14 51.27 395.13 51.2C395.13 51.18 395.13 51.16 395.13 51.14C395.13 51.12 395.13 51.1 395.13 51.08C395.13 51.06 395.13 51.04 395.13 51.02C395.13 51 395.13 50.98 395.13 50.96C395.04 50.62 395.04 50.29 395.04 49.96L395.04 49.81C395.04 49.71 395.04 49.62 395.04 49.52C395.04 49.43 395.04 49.33 395.05 49.24C395.05 49.14 395.06 49.05 395.06 48.95C395.07 48.86 395.08 48.76 395.09 48.67C395.12 48.39 395.16 48.1 395.22 47.82C395.27 47.54 395.34 47.27 395.43 47C395.51 46.72 395.61 46.45 395.72 46.19C395.83 45.93 395.95 45.67 396.09 45.42C398.4 41.25 403.71 39.48 406.21 35.48C406.52 34.94 406.78 34.39 407 33.81C407.22 33.23 407.4 32.64 407.52 32.04C407.65 31.44 407.74 30.82 407.77 30.21C407.81 29.59 407.8 28.97 407.74 28.36C407.73 28.14 407.71 27.92 407.69 27.7C407.67 27.48 407.65 27.26 407.62 27.04C407.59 26.83 407.56 26.61 407.53 26.39C407.5 26.17 407.46 25.96 407.42 25.74C407.35 25.32 407.26 24.91 407.17 24.5L407.17 24.36C407.07 23.96 406.98 23.57 406.87 23.18C406.81 22.95 406.71 22.6 406.68 22.48C406.65 22.36 406.6 22.25 406.6 22.13L406.51 21.78C406.47 21.64 406.44 21.5 406.41 21.36C406.38 21.22 406.35 21.07 406.33 20.93C406.3 20.79 406.28 20.64 406.26 20.5C406.23 20.36 406.22 20.21 406.2 20.07L406.2 20.02C406.18 19.87 406.16 19.72 406.15 19.57C406.14 19.41 406.14 19.26 406.14 19.11C406.14 18.96 406.14 18.81 406.15 18.65C406.16 18.5 406.18 18.35 406.2 18.2C406.22 18.04 406.25 17.88 406.3 17.72C406.34 17.56 406.39 17.4 406.45 17.25C406.51 17.1 406.58 16.95 406.66 16.81C406.74 16.66 406.82 16.52 406.92 16.39C407.15 16.13 407.4 15.88 407.67 15.66C407.93 15.44 408.22 15.25 408.52 15.08C408.83 14.91 409.14 14.76 409.47 14.65C409.8 14.53 410.14 14.45 410.48 14.39C416.18 13.06 422.24 14.79 427.97 13.6C431.74 12.83 435.18 10.84 438.97 10.41C445.12 9.71 451.13 13.37 454.97 18.27C457.61 21.64 459.57 25.71 463.14 28.06C466.27 30.13 470.18 30.54 473.6 32.06C477.42 33.75 480.79 37.4 480.53 41.58C480.53 41.61 480.54 41.57 480.53 41.66C480.52 41.75 480.52 41.85 480.51 41.94C480.5 42.03 480.49 42.12 480.47 42.22C480.46 42.31 480.45 42.4 480.43 42.49C480.42 42.59 480.4 42.68 480.38 42.77C480.37 42.79 480.37 42.82 480.36 42.84C480.36 42.86 480.35 42.89 480.34 42.91C480.34 42.93 480.33 42.96 480.32 42.98C480.32 43 480.31 43.03 480.3 43.05C480.23 43.36 480.15 43.67 480.05 43.98L480.05 44.07C479.36 46.18 478.21 48.21 477.93 50.4C477.9 50.62 477.85 50.84 477.85 51.07C477.74 53.86 479.25 56.41 480.3 58.99C480.45 59.34 480.59 59.7 480.71 60.06C480.83 60.43 480.93 60.8 481.02 61.17C481.1 61.55 481.17 61.92 481.21 62.3C481.26 62.68 481.29 63.07 481.3 63.45C481.3 63.58 481.3 63.66 481.3 63.84C481.3 64.02 481.3 64.2 481.3 64.37C481.29 64.42 481.28 64.47 481.28 64.53C481.27 64.58 481.26 64.63 481.25 64.68C481.24 64.73 481.23 64.78 481.22 64.84C481.2 64.89 481.19 64.94 481.18 64.99C481.18 65.01 481.17 65.04 481.17 65.06C481.16 65.08 481.15 65.11 481.15 65.13C481.14 65.15 481.14 65.18 481.13 65.2C481.12 65.22 481.12 65.25 481.11 65.27C481.09 65.34 481.07 65.4 481.05 65.46C481.02 65.53 481 65.59 480.97 65.66C480.95 65.72 480.92 65.78 480.9 65.84C480.87 65.91 480.84 65.97 480.81 66.03C480.8 66.04 480.8 66.06 480.79 66.07C480.78 66.08 480.78 66.1 480.77 66.11C480.76 66.12 480.75 66.14 480.74 66.15C480.74 66.16 480.73 66.18 480.72 66.19C480.69 66.26 480.65 66.32 480.61 66.39C480.57 66.45 480.53 66.52 480.49 66.58C480.45 66.65 480.41 66.71 480.37 66.77C480.32 66.83 480.28 66.89 480.23 66.95C479.95 67.26 479.65 67.53 479.31 67.78C478.98 68.02 478.62 68.22 478.24 68.39C477.87 68.56 477.47 68.68 477.07 68.77C476.66 68.85 476.25 68.89 475.84 68.89L475.13 68.89C474.79 68.86 474.44 68.81 474.1 68.75C473.76 68.69 473.43 68.62 473.09 68.54C472.76 68.46 472.43 68.36 472.1 68.25C471.77 68.14 471.45 68.02 471.13 67.89C471.37 68.62 471.58 69.36 471.76 70.12C472.42 72.87 472.7 75.69 472.6 78.51C472.5 81.34 472.01 84.13 471.16 86.82C470.3 89.52 469.08 92.08 467.53 94.44C465.99 96.81 464.12 98.95 462 100.81C461.98 101.18 461.92 101.54 461.92 101.9C461.86 103.07 461.81 104.23 461.79 105.4C461.76 106.57 461.76 107.73 461.77 108.9C461.78 110.07 461.81 111.24 461.86 112.4C461.91 113.57 461.98 114.74 462.07 115.9L462.22 115.78L463.33 117.21C462.51 110.68 461.8 106 461.8 106C461.8 106 479.04 120.48 485.6 120.82C485.6 120.82 483.83 128.84 476.5 132.18C476.5 132.18 494.51 134.54 501.17 133.54C507.83 132.54 519.49 134.19 521.83 137.54C524.17 140.89 529.17 145.21 533.17 145.89C537.17 146.57 541.52 150.57 541.52 150.57C541.52 150.57 546.51 157.25 551.17 157.25C555.83 157.25 559.5 163.25 559.5 163.25C559.5 163.25 566.17 166.92 570.5 165.92C574.83 164.92 592.83 163.27 595.5 166.1C598.17 168.93 615.5 171.6 615.5 171.6C615.5 171.6 622.17 181.96 628.17 181.96C634.17 181.96 667.5 206.36 668.5 215.05C667.93 214.71 667.35 214.38 666.76 214.07C666.17 213.75 665.57 213.46 664.96 213.18C664.36 212.9 663.74 212.64 663.12 212.39C662.5 212.15 661.87 211.92 661.24 211.71L661.65 212.52C667.32 223.85 676.15 246.33 664.55 258.49ZM365.08 283.63L365.16 283.71L365.16 283.52L365.08 283.63ZM357.56 205.41L341.89 213.41C341.89 213.41 336.23 224.43 331.89 226.11C327.55 227.79 327.89 233.79 327.89 233.79C327.89 233.79 339.56 242.11 335.22 245.79C330.88 249.47 335.22 251.47 335.22 251.47L343.83 260.84L344.83 259.78L353.16 251.15L357.4 206.44L357.56 205.41ZM413.21 435.24C413.2 435.32 413.09 436.04 412.89 437.24C412.09 442.19 409.95 455.25 408.89 461.68C408.7 462.98 408.58 464.3 408.51 465.61C408.44 466.93 408.44 468.25 408.49 469.56C408.55 470.88 408.67 472.19 408.85 473.5C409.02 474.8 409.26 476.1 409.56 477.38C409.56 477.38 409.91 479.96 410.56 483.96C410.64 484.48 410.72 485.02 410.81 485.58C410.93 485.42 411.03 485.25 411.13 485.07C411.23 484.9 411.33 484.72 411.41 484.54C411.49 484.35 411.57 484.17 411.64 483.98C411.7 483.79 411.76 483.59 411.81 483.4C413.14 477.04 420.48 473.71 420.48 473.71C420.48 473.71 414.81 452.32 417.14 446.97C417.46 446.16 417.71 445.32 417.9 444.47C418.09 443.62 418.22 442.75 418.28 441.88C418.34 441.01 418.34 440.14 418.26 439.27C418.19 438.4 418.05 437.54 417.85 436.69C417.23 434.65 416.03 433.49 414.16 434.55C414.07 434.6 413.98 434.65 413.89 434.71C413.81 434.77 413.72 434.82 413.64 434.89C413.56 434.95 413.47 435.01 413.39 435.08C413.31 435.14 413.24 435.21 413.16 435.28L413.21 435.24Z" />
	<path id="Layer" class="shp4" d="M459.64 109.7L461.8 108.26L467.89 121.11L465.55 123.86L458.47 123.86C458.47 123.86 458.72 116.86 458.89 116.61C459.06 116.36 459.64 109.7 459.64 109.7Z" />
	<path id="Layer" class="shp9" d="M417.83 619.05L417.83 646.55C417.83 646.55 413.33 654.92 397.83 655.3C396.89 655.36 395.96 655.27 395.05 655.03C394.14 654.8 393.27 654.43 392.48 653.94C391.68 653.44 390.97 652.83 390.36 652.11C389.76 651.4 389.26 650.59 388.9 649.73C386.74 645.35 386.49 639.21 386.71 634.48C386.74 633.89 386.77 633.3 386.82 632.71C386.86 632.12 386.92 631.53 386.98 630.94C387.04 630.35 387.11 629.76 387.19 629.18C387.27 628.59 387.36 628 387.46 627.42L417.83 619.05Z" />
	<path id="Layer" class="shp6" d="M417.83 619.05L417.83 627.56L386.71 634.48C386.74 633.89 386.77 633.3 386.82 632.71C386.86 632.12 386.92 631.53 386.98 630.94C387.04 630.35 387.11 629.76 387.19 629.18C387.27 628.59 387.36 628 387.46 627.42L417.83 619.05Z" />
	<path id="Layer" class="shp5" d="M423.16 624.38L384.16 633.05L377.5 606.71C377.26 606.38 377.03 606.04 376.8 605.7C376.58 605.35 376.36 605.01 376.15 604.65C375.94 604.3 375.73 603.95 375.53 603.59C375.34 603.23 375.14 602.87 374.96 602.5C374.53 601.66 374.11 600.77 373.71 599.84C366.45 583.23 363.22 553.27 361.84 527.78C361.77 526.49 361.7 525.21 361.64 523.95C360.52 500.89 360.83 482.39 360.83 482.39C360.83 482.39 365.5 459.72 360.83 451.06C357.23 444.38 356.01 434.34 355.64 430.06C355.54 428.79 355.5 428.06 355.5 428.06L356.22 426.17L359.16 418.39L391.5 418.39L410.3 434.3L413.16 436.72L412.84 438.72C412.03 443.66 409.89 456.72 408.84 463.1C408.65 464.4 408.53 465.71 408.46 467.02C408.39 468.33 408.39 469.65 408.44 470.96C408.5 472.27 408.62 473.58 408.8 474.89C408.97 476.19 409.21 477.48 409.51 478.76C409.81 480.04 409.9 481.3 410.51 485.33C410.66 486.33 410.83 487.39 411.02 488.54C413.41 503.32 417.89 530.31 419.8 536.76C420.33 538.53 420.8 542.97 421.15 548.98C421.23 550.18 421.3 551.43 421.37 552.74C422.77 578.36 423.16 624.38 423.16 624.38Z" />
	<path id="Layer" class="shp6" d="M417.83 646.27L417.83 646.55C417.83 646.55 413.33 654.92 397.83 655.3C396.89 655.36 395.96 655.27 395.05 655.03C394.14 654.8 393.27 654.43 392.48 653.94C391.68 653.44 390.97 652.83 390.36 652.11C389.76 651.4 389.26 650.59 388.9 649.73C395.85 651.44 407.13 652.54 417.83 646.27Z" />
	<path id="Layer" class="shp10" d="M664.5 260.38C654.22 271.05 643.22 251.21 636.57 235.54C632.84 226.72 630.5 219.21 630.5 219.21L657.86 207.63C657.86 207.63 659.54 210.3 661.65 214.53C667.32 225.83 676.15 248.25 664.5 260.38Z" />
	<path id="Layer" class="shp10" d="M461.95 104.17C461.84 106.64 461.8 109.12 461.84 111.59C461.88 114.07 461.99 116.54 462.18 119.01C462.36 121.47 462.62 123.94 462.95 126.39C463.28 128.84 463.68 131.28 464.16 133.71C464.64 136.14 408.5 139.71 413.5 131.05C416.43 125.97 418.33 112.56 419.39 102.31C420.16 95.05 420.5 89.38 420.5 89.38C420.5 89.38 473.83 68.05 465.83 86.05C463.44 91.42 462.33 97.78 461.95 104.17Z" />
	<path id="Layer" class="shp4" d="M466.65 247.38L459.17 336.71L493.5 331.05L487.5 257.38L489.5 237.71L466.65 247.38L466.65 247.38Z" />
	<path id="Layer" class="shp6" d="M493.5 331.19L478.59 333.65L459.16 336.85L460.53 320.55L466.65 247.52L474.44 244.22L479.96 241.89L489.5 237.85L487.5 257.52L493.5 331.19L493.5 331.19Z" />
	<path id="Layer" class="shp9" d="M348.95 624.78C344.58 633.53 351.33 641.65 351.33 641.65C352.83 646.72 352.84 649.82 352.17 651.65C350.78 655.54 346.45 654.11 346.45 654.11C332.83 652.61 324.58 615.87 328.08 611.66C331.58 607.45 325.95 597.78 325.95 597.78L318.58 600.65L311.83 579.91L316.09 574.66L321.6 567.88L325.33 563.28L362.58 602.15C362.58 602.15 360.99 604.54 358.8 607.97C355.74 612.78 351.51 619.68 348.95 624.78Z" />
	<path id="Layer" class="shp6" d="M421.4 552.69L374.96 602.5C366.82 586.6 363.32 554.7 361.84 527.77C370.49 520.57 378.84 514.37 385.16 511.38C385.16 511.38 406.54 495.91 411.05 488.49C413.44 503.27 417.92 530.26 419.83 536.71C420.46 538.83 420.98 544.78 421.4 552.69Z" />
	<path id="Layer" class="shp6" d="M410.3 434.29L356.22 426.16L359.16 418.38L391.5 418.38L410.3 434.29L410.3 434.29Z" />
	<path id="Layer" class="shp6" d="M421.22 548.93L373.75 599.84C366.45 583.23 363.22 553.27 361.84 527.78C361.77 526.49 361.7 525.21 361.64 523.95C370.37 516.67 378.82 510.41 385.16 507.39C385.16 507.39 405.11 492.96 410.54 485.29C410.69 486.29 410.86 487.35 411.05 488.5C413.44 503.28 417.92 530.27 419.83 536.72C420.36 538.48 420.8 542.92 421.22 548.93Z" />
	<path id="Layer" class="shp6" d="M362.58 602.17C362.58 602.17 360.99 604.56 358.8 607.99C350.85 597.94 332 574.8 321.6 567.9L325.33 563.3L362.58 602.17Z" />
	<path id="Layer" class="shp5" d="M483.16 459.37C480.5 469.71 480.5 482.04 480.5 482.04C480.5 482.04 480.16 504.37 458.16 513.04L455.53 514.04L364.53 611.67C364.53 611.67 330.86 567.67 319.86 565C319.86 565 364.19 519.33 385.19 509.33C385.19 509.33 410.53 491 411.86 484.67C413.19 478.34 420.53 475 420.53 475C420.53 475 414.86 453.67 417.19 448.33C417.51 447.52 417.76 446.69 417.95 445.84C418.14 444.99 418.27 444.13 418.33 443.26C418.39 442.39 418.39 441.52 418.31 440.65C418.24 439.79 418.1 438.93 417.9 438.08C417.28 436.08 416.08 434.89 414.21 435.94C414.12 435.99 414.03 436.04 413.94 436.1C413.86 436.16 413.77 436.21 413.69 436.28C413.61 436.34 413.52 436.4 413.44 436.47C413.36 436.53 413.29 436.6 413.21 436.67L355.55 428L355.55 398.37C355.55 398.37 341.55 382.04 343.55 362.04C345.55 342.04 341.21 342.71 341.21 342.71C341.21 342.71 341.42 308.93 344.27 306.11C347.12 303.29 374.5 290.37 374.5 290.37L460.34 305.62L463.88 322.04C463.88 322.04 466.88 335.1 471.88 340.9C476.88 346.7 471.88 353.69 471.88 353.69C471.88 353.69 473.55 368.69 478.55 382.04C483.55 395.39 485.83 449.04 483.16 459.37Z" />
	<path id="Layer" class="shp6" d="M465.83 86.05C463.44 91.42 462.33 97.82 461.95 104.17C458.98 106.74 455.55 108.72 451.85 110.01C448.14 111.31 444.22 111.88 440.3 111.71C436.38 111.54 432.52 110.62 428.94 109.01C425.36 107.4 422.12 105.13 419.39 102.31C420.16 95.05 420.5 89.38 420.5 89.38C420.5 89.38 473.83 68.05 465.83 86.05Z" />
	<path id="Layer" class="shp10" d="M472.65 79.78C472.64 96.19 459.85 109.75 443.46 110.71C427.08 111.67 412.79 99.7 410.86 83.4C408.94 67.11 420.04 52.13 436.19 49.25C452.35 46.36 467.95 56.56 471.79 72.51C471.93 73.1 472.06 73.7 472.17 74.31C472.27 74.91 472.36 75.51 472.44 76.12C472.51 76.73 472.56 77.34 472.6 77.95C472.63 78.56 472.65 79.17 472.65 79.78Z" />
	<path id="Layer" class="shp6" d="M447.5 133.71C447.5 133.71 425.22 123.38 423.83 122.04C422.44 120.7 376.22 239.38 376.22 239.38L363.22 298.38C363.22 298.38 432.55 328.04 447.55 324.04C462.55 320.04 463.88 324.04 463.88 324.04C463.88 324.04 479.22 238.04 484.22 230.38C489.22 222.72 479.55 144.71 479.55 144.71L462.22 122.03L447.5 133.71Z" />
	<path id="Layer" class="shp6" d="M447.5 129.71C447.5 129.71 425.22 119.38 423.83 118.04C422.44 116.7 376.22 235.38 376.22 235.38L363.22 294.38C363.22 294.38 432.55 324.04 447.55 320.04C462.55 316.04 463.88 320.04 463.88 320.04C463.88 320.04 479.22 234.04 484.22 226.38C489.22 218.72 479.55 140.71 479.55 140.71L462.22 118.03L447.5 129.71Z" />
	<path id="Layer" class="shp2" d="M484.16 228.38C483.16 229.97 481.65 234.91 479.96 241.75C478.78 246.51 477.5 252.18 476.19 258.28C470.29 285.81 463.83 322.05 463.83 322.05C463.83 322.05 463.42 320.83 460.53 320.41C458.19 320.07 454.21 320.26 447.53 322.05C432.53 326.05 363.19 296.38 363.19 296.38L365.19 287.38L376.19 237.38C376.19 237.38 422.53 118.71 423.86 120.05C424.67 120.86 433.33 125.05 439.93 128.16C444.14 130.16 447.53 131.71 447.53 131.71L461.53 120.65L462.3 120.04L479.55 142.71C479.55 142.71 489.16 220.71 484.16 228.38Z" />
	<path id="Layer" class="shp6" d="M431.16 143.38C433.16 151.07 428.5 163.71 428.5 163.71C428.5 163.71 412.5 203.05 407.83 221.23C403.16 239.41 376.45 276.05 376.45 276.05C376.45 276.05 372.53 279.98 367.04 285.45C366.43 286.06 365.79 286.69 365.15 287.35L376.15 237.35C376.15 237.35 422.49 118.68 423.82 120.02C424.63 120.83 433.29 125.02 439.89 128.13C435.76 131.89 429.83 138.29 431.16 143.38Z" />
	<path id="Layer" class="shp4" d="M429.16 143.38C431.16 151.07 426.5 163.71 426.5 163.71C426.5 163.71 410.5 203.05 405.83 221.23C401.16 239.41 374.45 276.05 374.45 276.05C374.45 276.05 370.53 279.98 365.04 285.45C364.39 286.1 363.71 286.77 363.04 287.45C352.32 298.12 337.25 313.08 332.54 317.45C331.85 318.1 331.38 318.52 331.18 318.66C331.07 318.73 330.96 318.8 330.85 318.86C330.74 318.92 330.63 318.98 330.51 319.03C330.39 319.08 330.27 319.13 330.15 319.17C330.03 319.21 329.9 319.24 329.78 319.27C326.7 320.11 320.63 319.5 312.18 318.66C302.18 317.66 310.52 297 310.52 297L313.15 294.29L315.55 291.81L342.79 263.78L344.79 261.67L353.12 253.08L357.36 208.48L357.46 207.41C357.46 207.41 356.22 204.58 354.31 200.26C349.22 188.57 339.22 166.01 335.56 158.72C335.14 157.87 334.81 157.24 334.56 156.85C334.56 156.8 334.51 156.75 334.48 156.71C331.81 152.38 339.14 152.71 339.14 152.71C339.14 152.71 346.48 150.71 345.14 147.71C343.8 144.71 353.81 142.71 353.48 138.38C353.15 134.05 359.48 133.38 359.48 133.38C359.48 133.38 368.48 136.38 367.48 133.38C366.48 130.38 381.48 128.71 381.48 128.71C381.48 128.71 388.81 132.38 392.81 128.71C396.81 125.04 413.22 125.05 413.22 125.05C413.22 125.05 409.87 112.38 413.22 108.71C416.57 105.04 441.69 125.05 441.69 125.05C441.69 125.05 427.16 135.7 429.16 143.38Z" />
	<path id="Layer" class="shp6" d="M345.83 314.04C345.83 314.04 373.5 353.04 392.83 340.38C412.16 327.72 366.83 294.71 366.83 294.71L345.83 314.04Z" />
	<path id="Layer" class="shp10" d="M345.83 312.04C345.83 312.04 373.5 351.04 392.83 338.38C412.16 325.72 366.83 292.71 366.83 292.71L345.83 312.04Z" />
	<path id="Layer" class="shp6" d="M478.59 333.51C480.7 315.1 486.82 287.44 481.83 279.05C479.36 274.89 477.53 266.96 476.19 258.28C475.47 253.61 474.9 248.72 474.44 244.08C473.22 231.77 472.83 221.23 472.83 221.23C472.83 221.23 460.83 167.71 463.16 156.71C464.62 149.83 462.94 132.59 461.48 120.65L462.25 120.04L479.5 142.71C479.5 142.71 489.16 220.71 484.16 228.38C483.16 229.97 481.65 234.91 479.96 241.75L489.5 237.75L487.5 257.42L493.5 331.09L478.59 333.51Z" />
	<path id="Layer" class="shp4" d="M461.8 108.26C461.8 108.26 479.04 122.71 485.6 123.04C485.6 123.04 483.83 131.04 476.5 134.38C476.5 134.38 494.5 136.76 501.17 135.73C507.84 134.7 519.5 136.38 521.83 139.73C524.16 143.08 529.22 147.38 533.22 148.04C537.22 148.7 541.57 152.71 541.57 152.71L512.22 196.04C512.22 196.04 501.55 222.71 503.88 228.71C506.21 234.71 503.54 268.38 501.71 270.04C499.88 271.7 504.88 338.71 513.88 338.71C513.88 338.71 489.22 355.38 481.88 350.38C474.54 345.38 491.22 291.38 483.88 279.04C476.54 266.7 474.88 221.22 474.88 221.22C474.88 221.22 462.88 167.71 465.22 156.71C467.56 145.71 461.8 108.26 461.8 108.26Z" />
	<path id="Layer" class="shp6" d="M661.65 214.53C652.74 211.75 639.09 211.67 636.57 235.53C632.84 226.71 630.5 219.2 630.5 219.2L657.86 207.62C657.86 207.62 659.54 210.3 661.65 214.53Z" />
	<path id="Layer" class="shp4" d="M525.22 150.71L541.57 152.71C541.57 152.71 546.57 159.38 551.22 159.38C555.87 159.38 559.55 165.38 559.55 165.38C559.55 165.38 566.22 169.04 570.55 168.04C574.88 167.04 592.88 165.39 595.55 168.22C598.22 171.05 615.55 173.71 615.55 173.71C615.55 173.71 622.22 184.04 628.22 184.04C634.22 184.04 667.55 208.38 668.55 217.04C668.55 217.04 635.55 196.04 635.22 242.21C635.22 242.21 621.22 229.71 618.88 224.38C616.54 219.05 594.88 221.22 594.88 221.22C594.88 221.22 580.22 214.71 577.88 210.38C575.54 206.05 561.88 217.28 557.55 213.99C553.22 210.7 513.88 193.58 513.88 193.58L501.71 170.71L525.22 150.71Z" />
	<path id="Layer" class="shp9" d="M449.83 191.21C448.27 191.21 447 189.94 447 188.38C447 186.82 448.27 185.55 449.83 185.55C451.39 185.55 452.66 186.82 452.66 188.38C452.66 189.94 451.39 191.21 449.83 191.21Z" />
	<path id="Layer" class="shp9" d="M447 250.3C445.44 250.3 444.17 249.03 444.17 247.47C444.17 245.91 445.44 244.64 447 244.64C448.56 244.64 449.83 245.91 449.83 247.47C449.83 249.03 448.56 250.3 447 250.3Z" />
	<path id="Layer" class="shp9" d="M449.83 219.2C448.27 219.2 447 217.93 447 216.37C447 214.81 448.27 213.54 449.83 213.54C451.39 213.54 452.66 214.81 452.66 216.37C452.66 217.93 451.39 219.2 449.83 219.2Z" />
	<path id="Layer" class="shp9" d="M441.66 281.4C440.1 281.4 438.83 280.13 438.83 278.57C438.83 277.01 440.1 275.74 441.66 275.74C443.22 275.74 444.49 277.01 444.49 278.57C444.49 280.13 443.22 281.4 441.66 281.4Z" />
	<path id="Layer" class="shp6" d="M352.22 651.7C350.83 655.59 346.5 654.16 346.5 654.16C332.88 652.66 324.63 615.92 328.13 611.71C331.63 607.5 325.95 597.78 325.95 597.78L318.58 600.65L311.83 579.91L316.09 574.66C320.33 582.01 326.4 592.58 327.83 595.28C328.51 596.67 329.09 598.11 329.59 599.57C330.09 601.04 330.5 602.53 330.82 604.05C331.13 605.56 331.36 607.1 331.48 608.64C331.61 610.18 331.64 611.73 331.58 613.28C331.35 619.78 338.89 650.86 352.22 651.7Z" />
	<path id="Layer" class="shp6" d="M471.79 72.47C471.11 72.24 470.43 71.97 469.79 71.7C467.5 70.77 465.09 69.7 463.7 67.7C462.43 65.84 462.02 63.22 460.04 62.16C457.76 60.94 455.04 62.59 452.57 63.16C449.63 63.85 446.57 63.03 443.71 61.98C439.45 60.41 433.5 57.52 429.13 60.51C425.73 62.83 427.05 67.75 426.18 71.26C424.83 76.71 419.04 80.26 417.95 85.77C417.46 88.2 417.78 91.17 415.81 92.68C415.67 92.78 415.52 92.88 415.37 92.96C415.21 93.05 415.05 93.13 414.89 93.2C414.73 93.27 414.57 93.33 414.4 93.39C414.23 93.44 414.06 93.48 413.89 93.52C409.98 85.61 409.63 76.42 412.92 68.23C416.21 60.05 422.83 53.65 431.12 50.65C439.41 47.64 448.59 48.31 456.36 52.49C464.13 56.66 469.75 63.95 471.82 72.52L471.79 72.47Z" />
	<path id="Layer" class="shp4" d="M443.69 59.95C446.52 61 449.6 61.82 452.55 61.12C455.06 60.53 457.73 58.88 460.01 60.12C462.01 61.19 462.41 63.8 463.67 65.66C465.06 67.66 467.47 68.78 469.77 69.66C470.2 69.86 470.63 70.04 471.08 70.21C471.52 70.37 471.97 70.52 472.42 70.64C472.88 70.77 473.34 70.88 473.8 70.97C474.26 71.06 474.73 71.13 475.2 71.18C475.67 71.23 476.14 71.22 476.61 71.16C477.08 71.09 477.53 70.98 477.98 70.81C478.42 70.64 478.84 70.43 479.23 70.16C479.62 69.9 479.98 69.59 480.3 69.25C482.08 67.1 481.54 63.88 480.48 61.31C479.42 58.74 477.92 56.18 478.03 53.4C478.16 50.1 480.55 47.23 480.75 43.94C481.01 39.77 477.64 36.13 473.82 34.44C470.4 32.93 466.49 32.51 463.36 30.44C459.79 28.1 457.83 24.04 455.19 20.68C451.35 15.79 445.34 12.14 439.19 12.84C435.4 13.27 431.96 15.25 428.19 16.02C422.46 17.21 416.4 15.48 410.7 16.81C410.36 16.86 410.02 16.95 409.7 17.06C409.37 17.17 409.05 17.31 408.75 17.47C408.45 17.64 408.16 17.83 407.89 18.05C407.62 18.26 407.37 18.5 407.14 18.76C405.74 20.64 406.46 23.27 407.08 25.53C408.19 29.6 408.66 34.21 406.45 37.79C403.95 41.84 398.64 43.55 396.33 47.71C396 48.32 395.74 48.96 395.56 49.63C395.37 50.3 395.27 50.99 395.25 51.68C395.23 52.38 395.3 53.07 395.44 53.75C395.58 54.42 395.8 55.08 396.1 55.71C397.2 58.01 399.33 59.88 399.66 62.41C399.89 64.23 399.14 66 398.75 67.78C398.36 69.56 398.47 71.78 399.94 72.78C401.41 73.78 403.47 73.53 404.6 74.78C404.77 75.03 404.91 75.29 405.02 75.57C405.13 75.85 405.21 76.14 405.26 76.44C405.3 76.74 405.32 77.04 405.3 77.34C405.27 77.64 405.22 77.93 405.13 78.22C404.73 80.22 403.88 82.03 403.43 83.99C403.29 84.47 403.19 84.96 403.15 85.46C403.11 85.96 403.13 86.46 403.19 86.96C403.26 87.45 403.38 87.94 403.55 88.41C403.72 88.88 403.94 89.34 404.2 89.76C406.14 92.38 410.06 92.22 413.2 91.52C413.43 91.48 413.65 91.44 413.87 91.38C414.09 91.32 414.31 91.24 414.52 91.16C414.73 91.07 414.94 90.98 415.14 90.87C415.34 90.77 415.54 90.65 415.73 90.52C417.73 89.01 417.38 86.04 417.87 83.61C418.96 78.11 424.75 74.54 426.1 69.1C426.97 65.59 425.65 60.66 429.05 58.34C433.47 55.49 439.43 58.38 443.69 59.95Z" />
	<path id="Layer" class="shp6" d="M438.83 421.71C438.83 421.71 470.22 441.71 471.22 449.38L438.83 421.71Z" />
	<path id="Layer" class="shp6" d="M437.22 437.71C437.22 437.71 473.22 455.04 471.22 461.04L437.22 437.71Z" />
	<path id="Layer" class="shp6" d="M434.83 453.04C434.83 453.04 455.17 463.71 456.5 470.04L434.83 453.04Z" />
	<path id="Layer" class="shp6" d="M443.5 477.04C443.5 477.04 456.83 488.71 459.5 485.71C462.17 482.71 443.5 477.04 443.5 477.04Z" />
	<path id="Layer" class="shp6" d="M424.83 484.38C424.83 484.38 435.22 501.04 430.22 502.04C425.22 503.04 424.83 484.38 424.83 484.38Z" />
	<path id="Layer" class="shp6" d="M379.22 188.38C379.22 188.38 361.55 199.04 366.88 201.71C372.21 204.38 379.22 188.38 379.22 188.38Z" />
	<path id="Layer" class="shp6" d="M379.22 149.04C379.22 149.04 361.22 182.04 369.55 179.71C377.88 177.38 379.22 149.04 379.22 149.04Z" />
	<path id="Layer" class="shp6" d="M570.5 182.04C570.5 182.04 559.5 194.98 561.5 202.04L570.5 182.04Z" />
	<path id="Layer" class="shp6" d="M599.22 188.38C599.22 188.38 582.71 203.04 585.13 204.71L599.22 188.38Z" />
	<path id="Layer" class="shp6" d="M609.5 206.39C609.5 206.39 607.83 216.03 610.5 216.39L609.5 206.39Z" />
	<path id="Layer" class="shp11" d="M429.33 409.78C425.08 415.28 425.08 425.03 423.16 429.03C422.11 431.23 419.77 435.03 417.87 438.11C417.25 436.11 416.05 434.92 414.18 435.97C412.95 426.8 410.78 410.97 410.08 407.78C409.08 403.28 420.08 391.28 420.08 391.28C420.08 391.28 430.83 393.53 433.58 399.03C436.33 404.53 433.58 404.29 429.33 409.78Z" />
	<path id="Layer" class="shp6" d="M373.83 294.05C361.83 295.71 339.5 327.71 339.5 327.71C339.5 327.71 336.57 323.45 332.5 317.5C327.38 309.95 320.5 299.66 315.5 291.86L344.8 261.64L350.13 267.38C350.13 267.38 360.47 277.71 360.47 279.71C360.47 280.49 362.47 282.86 365.01 285.45C368.9 289.48 373.83 294.05 373.83 294.05Z" />
	<path id="Layer" class="shp6" d="M335.56 158.72C335.14 157.87 334.81 157.24 334.56 156.85L347.48 157.71L354.33 200.23C349.22 188.57 339.22 166.01 335.56 158.72Z" />
	<path id="Layer" class="shp6" d="M363.02 287.48C352.3 298.15 337.23 313.11 332.52 317.48C331.83 318.13 331.36 318.55 331.16 318.69C331.05 318.76 330.94 318.83 330.83 318.89C330.72 318.95 330.61 319.01 330.49 319.06C330.37 319.11 330.25 319.16 330.13 319.2C330.01 319.24 329.88 319.27 329.76 319.3C325.05 312.38 318.33 302.41 313.13 294.3L315.53 291.82L342.79 263.78L346.16 267.41C346.16 267.41 356.5 277.74 356.5 279.74C356.5 280.7 359.73 284.18 363.02 287.48Z" />
	<path id="Layer" class="shp4" d="M349.5 157.71L334.5 156.71C334.5 156.71 330.5 166.04 327.17 166.71C323.84 167.38 319.5 175.04 319.5 175.04C319.5 175.04 306.66 177.38 307.22 181.38C307.78 185.38 287.48 213.99 287.48 213.99C287.48 213.99 280.81 227.71 285.48 237.71C290.15 247.71 293.48 254.38 294.48 258.04C295.48 261.7 307.32 277.71 307.22 280.71C307.12 283.71 337.48 327.71 337.48 327.71C337.48 327.71 359.81 295.71 371.81 294.04C371.81 294.04 358.48 281.71 358.48 279.71C358.48 277.71 348.22 267.38 348.22 267.38L335.22 253.38C335.22 253.38 330.88 251.38 335.22 247.71C339.56 244.04 327.89 235.71 327.89 235.71C327.89 235.71 327.55 229.71 331.89 228.04C336.23 226.37 341.89 215.38 341.89 215.38L357.56 207.38L349.5 157.71Z" />
	<path id="Layer" class="shp6" d="M292.22 224.04C292.22 224.04 310.22 220.38 310.55 222.71C310.88 225.04 292.22 224.04 292.22 224.04Z" />
	<path id="Layer" class="shp6" d="M307.22 242.21C307.22 242.21 322.48 244.21 321.81 247.47C321.14 250.73 307.22 242.21 307.22 242.21Z" />
	<path id="Layer" class="shp6" d="M319.83 185.54C319.83 185.54 334.5 206.31 336.5 202.01L319.83 185.54Z" />
	<g id="Layer" style="opacity: 0.102">
		<path id="Layer" class="shp12" d="M407.98 30.78C408 30.18 408 29.57 407.97 28.97C407.95 28.36 407.9 27.76 407.82 27.16C407.75 26.56 407.65 25.96 407.52 25.37C407.4 24.78 407.25 24.19 407.08 23.61C407.01 23.36 406.94 23.12 406.88 22.87C406.81 22.62 406.75 22.37 406.7 22.12C406.64 21.87 406.59 21.62 406.55 21.37C406.5 21.12 406.46 20.86 406.42 20.61C406.39 21.03 406.38 21.46 406.39 21.88C406.4 22.3 406.44 22.72 406.49 23.14C406.55 23.56 406.62 23.98 406.72 24.39C406.82 24.8 406.94 25.21 407.08 25.61C407.2 26.03 407.31 26.46 407.4 26.88C407.5 27.31 407.59 27.74 407.66 28.17C407.74 28.6 407.8 29.04 407.85 29.47C407.91 29.91 407.95 30.34 407.98 30.78L407.98 30.78Z" />
		<path id="Layer" class="shp12" d="M478.11 52.78C478.5 49.78 480.56 47.05 480.75 43.98C480.76 43.85 480.76 43.72 480.76 43.6C480.76 43.47 480.76 43.34 480.76 43.21C480.75 43.09 480.74 42.96 480.73 42.83C480.72 42.7 480.71 42.58 480.69 42.45C480.3 45.55 478.15 48.3 478.03 51.45C478.03 51.56 478.03 51.67 478.03 51.78C478.03 51.89 478.03 52.01 478.04 52.12C478.05 52.23 478.06 52.34 478.07 52.45C478.08 52.56 478.09 52.67 478.11 52.78Z" />
		<path id="Layer" class="shp12" d="M480.3 67.28C479.98 67.62 479.62 67.93 479.23 68.19C478.84 68.46 478.42 68.67 477.98 68.84C477.53 69.01 477.08 69.12 476.61 69.19C476.14 69.25 475.67 69.26 475.2 69.21C474.73 69.16 474.26 69.09 473.8 69C473.34 68.91 472.88 68.8 472.42 68.67C471.97 68.55 471.52 68.4 471.08 68.24C470.63 68.07 470.2 67.89 469.77 67.69C467.47 66.76 465.06 65.69 463.67 63.69C462.4 61.83 461.99 59.22 460.01 58.15C457.73 56.93 455.01 58.58 452.54 59.15C449.6 59.85 446.54 59.03 443.69 57.98C439.43 56.41 433.47 53.52 429.1 56.5C425.7 58.82 427.02 63.75 426.15 67.26C424.8 72.7 419.01 76.26 417.92 81.77C417.43 84.2 417.75 87.17 415.78 88.68C415.59 88.81 415.39 88.93 415.19 89.03C414.99 89.14 414.78 89.24 414.57 89.32C414.35 89.4 414.13 89.48 413.91 89.54C413.69 89.6 413.47 89.64 413.24 89.68C410.06 90.38 406.14 90.54 404.24 87.92C404.1 87.73 403.98 87.54 403.87 87.34C403.76 87.13 403.66 86.93 403.57 86.71C403.49 86.5 403.42 86.27 403.36 86.05C403.31 85.83 403.27 85.6 403.24 85.37C403.18 85.76 403.15 86.16 403.16 86.56C403.17 86.96 403.22 87.35 403.31 87.74C403.39 88.13 403.51 88.51 403.67 88.87C403.83 89.24 404.02 89.59 404.24 89.92C406.18 92.54 410.1 92.38 413.24 91.68C413.47 91.64 413.69 91.6 413.91 91.54C414.13 91.48 414.35 91.4 414.57 91.32C414.78 91.24 414.99 91.14 415.19 91.03C415.39 90.93 415.59 90.81 415.78 90.68C417.78 89.17 417.43 86.2 417.92 83.77C419.01 78.27 424.8 74.7 426.15 69.26C427.02 65.75 425.7 60.82 429.1 58.5C433.47 55.5 439.43 58.41 443.69 59.98C446.52 61.03 449.6 61.85 452.54 61.15C455.06 60.56 457.73 58.91 460.01 60.15C462.01 61.22 462.4 63.83 463.67 65.69C465.06 67.69 467.47 68.81 469.77 69.69C470.2 69.89 470.63 70.07 471.08 70.24C471.52 70.4 471.97 70.55 472.42 70.67C472.88 70.8 473.34 70.91 473.8 71C474.26 71.09 474.73 71.16 475.2 71.21C475.67 71.26 476.14 71.25 476.61 71.19C477.08 71.12 477.53 71.01 477.98 70.84C478.42 70.67 478.84 70.46 479.23 70.19C479.62 69.93 479.98 69.62 480.3 69.28C480.54 68.96 480.75 68.61 480.92 68.24C481.09 67.87 481.22 67.49 481.32 67.1C481.41 66.7 481.46 66.3 481.47 65.9C481.48 65.49 481.45 65.09 481.38 64.69C481.35 64.93 481.31 65.16 481.25 65.39C481.19 65.62 481.12 65.84 481.03 66.06C480.93 66.28 480.83 66.49 480.71 66.7C480.58 66.9 480.45 67.1 480.3 67.28L480.3 67.28Z" />
		<path id="Layer" class="shp12" d="M399.66 60.45C399.33 57.92 397.2 56.05 396.1 53.75C396 53.53 395.9 53.31 395.82 53.09C395.73 52.87 395.66 52.64 395.59 52.41C395.53 52.18 395.47 51.94 395.43 51.71C395.38 51.47 395.35 51.24 395.32 51C395.27 51.4 395.25 51.81 395.26 52.22C395.27 52.62 395.31 53.03 395.38 53.43C395.44 53.83 395.54 54.23 395.66 54.62C395.78 55 395.93 55.38 396.1 55.75C397.17 57.98 399.19 59.82 399.61 62.23C399.64 62.08 399.66 61.94 399.67 61.79C399.69 61.64 399.69 61.49 399.7 61.34C399.7 61.19 399.7 61.04 399.7 60.9C399.69 60.75 399.68 60.6 399.66 60.45L399.66 60.45Z" />
		<path id="Layer" class="shp12" d="M405.22 76.07C405.29 75.8 405.33 75.53 405.34 75.25C405.36 74.97 405.34 74.69 405.29 74.42C405.24 74.15 405.16 73.88 405.05 73.63C404.95 73.37 404.81 73.13 404.65 72.9C403.52 71.61 401.37 71.9 399.99 70.9C399.81 70.76 399.64 70.59 399.49 70.42C399.34 70.24 399.21 70.05 399.09 69.84C398.98 69.64 398.89 69.42 398.82 69.2C398.75 68.98 398.7 68.75 398.68 68.52C398.46 70.15 398.68 71.95 399.99 72.9C401.3 73.85 403.52 73.65 404.65 74.9C404.72 74.98 404.79 75.07 404.84 75.16C404.9 75.26 404.96 75.35 405.01 75.45C405.05 75.55 405.1 75.65 405.13 75.75C405.17 75.86 405.2 75.96 405.22 76.07L405.22 76.07Z" />
	</g>
	<path id="Layer" class="shp2" d="M167.84 593.99C167.84 593.99 126.48 591.49 131.35 620.48C131.35 620.48 130.35 625.6 135.03 627.93C135.03 627.93 135.1 625.78 139.27 626.51C139.64 626.57 140.01 626.62 140.39 626.66C140.76 626.7 141.13 626.73 141.51 626.75C141.88 626.77 142.26 626.77 142.63 626.77C143.01 626.76 143.39 626.75 143.76 626.72C144.26 626.69 144.76 626.61 145.25 626.5C145.75 626.38 146.23 626.23 146.69 626.04C147.16 625.84 147.61 625.62 148.04 625.35C148.47 625.09 148.88 624.79 149.26 624.46L149.26 624.46C149.26 624.46 160.89 619.65 165.41 600.65C165.41 600.65 168.75 596.5 168.62 595.44L161.62 598.44C161.62 598.44 164.01 603.44 162.13 607.66C162.13 607.66 161.9 598.66 160.56 598.83C160.29 598.88 156.93 600.58 156.93 600.58C156.93 600.58 161.04 609.35 157.93 615.73C157.93 615.73 159.11 604.92 155.64 601.21L150.73 604.08C150.73 604.08 155.53 613.14 152.27 620.54C152.27 620.54 153.11 609.2 149.7 604.78L145.24 608.25C145.24 608.25 149.75 617.18 147 623.32C147 623.32 146.64 610.11 144.28 609.12C144.28 609.12 140.38 612.55 139.79 613.96C139.79 613.96 142.87 620.45 140.96 623.87C140.96 623.87 139.79 615.07 138.82 615.03C138.82 615.03 134.94 620.86 134.54 624.85C134.54 624.85 134.71 618.91 137.88 614.47C137.32 614.58 136.78 614.72 136.24 614.91C135.71 615.09 135.19 615.32 134.69 615.58C134.18 615.84 133.7 616.13 133.24 616.46C132.78 616.79 132.35 617.16 131.94 617.55C131.53 617.94 132.54 613.43 138.84 613.07C138.84 613.07 142.05 608.65 142.91 608.38C142.91 608.38 136.64 607.86 132.85 609.54C132.85 609.54 136.19 605.66 144.05 607.42L148.45 603.83C148.45 603.83 140.21 602.71 136.71 603.95C136.71 603.95 140.71 600.51 149.64 603.02L154.42 600.16C154.42 600.16 147.42 598.64 143.2 599.16C143.2 599.16 147.62 596.78 155.82 599.36L159.25 597.82C159.25 597.82 154.1 596.82 152.59 596.65C151.08 596.48 151 596.07 151 596.07C151.81 595.94 152.63 595.86 153.45 595.84C154.27 595.81 155.09 595.85 155.91 595.94C156.73 596.03 157.54 596.18 158.33 596.38C159.13 596.58 159.91 596.84 160.67 597.15C161.43 597.46 167.97 594.44 167.84 593.99Z" />
	<path id="Layer" class="shp0" d="M139.35 635.41C123.16 635.41 110.07 633.2 110.07 630.46C110.07 627.72 123.16 625.51 139.35 625.51C155.54 625.51 168.63 627.72 168.63 630.46C168.63 633.2 155.54 635.41 139.35 635.41Z" />
</svg>