<svg xmlns="http://www.w3.org/2000/svg" viewBox="0 0 995 679" width="995" height="679">
	<style>
		tspan { white-space:pre }
		.shp0 { fill: #e6e6e6 } 
		.shp1 { fill: #3f3d56 } 
		.shp2 { fill: #6c63ff } 
		.shp3 { fill: none;stroke: #3f3d56 } 
		.shp4 { fill: #ffb6b6 } 
		.shp5 { fill: #2f2e41 } 
		.shp6 { fill: #ffb8b8 } 
		.shp7 { fill: #d0cde1 } 
		.shp8 { opacity: 0.2;fill: #000000 } 
	</style>
	<path id="Layer" class="shp0" d="M179.88 637.19C80.42 637.35 0.01 632.25 0 625.79C-0.01 619.33 80.38 613.97 179.85 613.81C279.31 613.65 359.72 618.75 359.73 625.21C359.74 631.68 279.35 637.03 179.88 637.19Z" />
	<path id="Layer" class="shp0" d="M560.34 484.02C482.25 484.14 419.11 480.14 419.1 475.07C419.09 469.99 482.22 465.79 560.31 465.66C638.41 465.54 701.55 469.54 701.56 474.61C701.57 479.69 638.44 483.89 560.34 484.02Z" />
	<path id="Layer" class="shp0" d="M816.01 642.9C717.33 643.06 637.54 629.09 637.51 611.65C637.48 594.21 717.23 579.99 815.91 579.83C914.59 579.67 994.38 593.64 994.41 611.08C994.43 628.52 914.69 642.74 816.01 642.9Z" />
	<path id="Layer" class="shp1" d="M206.55 307.21L226.81 301.57C226.81 301.57 234.74 299.99 229.89 284.49C225.04 269 215.43 273.34 215.43 273.34L197.46 278.56L190.37 280.75L200.35 294.75L201.19 304.08L206.55 307.21Z" />
	<path id="Layer" class="shp1" d="M167.42 266.27L161.06 291.66L193.62 323.21L196.42 323.91L203.89 321.81L210.24 296.43L203.81 289.66L210.38 287.94L196.34 274.31L189.02 275.85L183.14 270.01L187.11 268.43L187.48 266.94L182.68 263.15L167.42 266.27L167.42 266.27Z" />
	<path id="Layer" class="shp2" d="M197.92 302.07L193.72 318.87L174.31 300.53L179.17 283.5L197.92 302.07L197.92 302.07Z" />
	<path id="Layer" class="shp3" d="M167.42 266.27L166.53 269.83L198.9 301.33L201.7 302.03L208.94 300.07L209.33 300.06L210.24 296.43L203.81 289.66L210.38 287.94L196.34 274.31L189.02 275.85L183.14 270.01L187.11 268.43L187.48 266.94L182.68 263.15L167.42 266.27L167.42 266.27Z" />
	<path id="Layer" class="shp2" d="M184.99 266.61C184.74 267.59 183.37 268.09 181.93 267.73C180.48 267.36 179.52 266.28 179.76 265.3C180.01 264.32 181.37 263.82 182.82 264.18C184.26 264.54 185.23 265.63 184.99 266.61Z" />
	<path id="Layer" class="shp2" d="M205.55 293.77C205.31 294.75 203.94 295.25 202.5 294.89C201.05 294.53 200.08 293.44 200.33 292.46C200.57 291.48 201.94 290.98 203.39 291.34C204.83 291.71 205.8 292.79 205.55 293.77Z" />
	<path id="Layer" class="shp4" d="M220.01 338.83L215.59 323.81C215.59 323.81 227.08 296.43 213.83 293.78C200.58 291.13 199.69 319.39 199.69 319.39L204.99 336.18L220.01 338.83Z" />
	<path id="Layer" class="shp4" d="M138.01 309.63C118.6 309.63 102.92 293.95 102.92 274.54C102.92 255.14 118.6 239.45 138.01 239.45C157.41 239.45 173.1 255.14 173.1 274.54C173.1 293.95 157.41 309.63 138.01 309.63Z" />
	<path id="Layer" class="shp4" d="M149.36 299.31C149.36 299.31 151.42 325.11 156.58 327.17C161.74 329.24 110.45 343.69 110.45 343.69L125.93 326.14C125.93 326.14 119.43 299.31 112.21 293.12L149.36 299.31Z" />
	<path id="Layer" class="shp2" d="M198.81 330.88L212.94 329.11C212.94 329.11 229.73 337.94 229.73 349.43C229.73 360.91 239.44 379.46 239.44 379.46C239.44 379.46 246.51 404.19 230.61 405.96C214.71 407.73 200.58 379.46 200.58 379.46L198.81 330.88Z" />
	<path id="Layer" class="shp5" d="M206.76 471.33L235.25 451.7C237.49 450.13 239.95 448.9 242.56 448.05C245.16 447.2 247.87 446.75 250.61 446.7C253.35 446.65 256.07 447 258.71 447.76C261.34 448.51 263.84 449.65 266.14 451.14C270.06 453.76 273.01 457.19 273.01 461.61C273.01 474.86 243.86 505.78 243.86 505.78C243.86 505.78 221.78 554.36 200.58 556.13C197.09 556.44 193.61 556.81 190.13 557.23C186.66 557.64 183.19 558.11 179.73 558.62C176.27 559.14 172.81 559.7 169.37 560.32C165.92 560.93 162.49 561.6 159.06 562.31C155.63 563.02 168.78 597.64 163.48 607.36C158.18 617.08 137.86 628.56 136.09 627.68C134.33 626.79 109.59 603.83 98.99 571.14C88.39 538.46 81.33 513.73 91.04 511.96C100.76 510.19 206.76 471.33 206.76 471.33Z" />
	<path id="Layer" class="shp5" d="M270.36 458.96C270.36 458.96 276.54 458.08 275.66 473.09C274.78 488.11 272.13 541.99 267.71 552.59C263.29 563.19 262.41 575.56 264.18 579.98C265.94 584.39 269.48 591.46 263.29 592.34C257.11 593.23 231.49 589.69 228.84 588.81C226.19 587.93 239.44 553.48 237.68 551.71C235.91 549.94 234.14 508.43 234.14 508.43L270.36 458.96Z" />
	<path id="Layer" class="shp5" d="M261.53 589.69C261.53 589.69 276.54 585.28 278.31 594.99C278.31 594.99 280.96 610.01 269.48 615.31C267.62 616.19 265.79 617.1 263.98 618.06C262.17 619.01 260.38 620 258.61 621.03C256.84 622.07 255.09 623.14 253.37 624.24C251.65 625.35 249.95 626.5 248.28 627.68C246.6 628.86 229.73 634.74 228.84 625.91C227.96 617.08 232.38 585.28 232.38 585.28L261.53 589.69Z" />
	<path id="Layer" class="shp5" d="M161.71 600.29L133.44 577.33C133.44 577.33 138.74 605.59 131.68 610.89L128.45 620.33L137.49 627.73C137.49 627.73 165.24 623.26 161.71 600.29Z" />
	<path id="Layer" class="shp5" d="M121.96 561.43C121.96 561.43 140.51 566.73 137.86 585.28C135.21 603.83 131.81 623.98 131.81 623.98C131.81 623.98 130.79 673.61 117.54 677.14C104.29 680.68 100.76 673.61 100.76 673.61C100.76 673.61 85.7 634.83 90.16 623.26C95.56 609.26 103.34 593.54 100.76 588.81C98.22 584.16 102.53 558.78 121.96 561.43Z" />
	<path id="Layer" class="shp2" d="M111.36 317.63C111.36 317.63 118.43 318.51 129.91 320.28C141.39 322.04 149.34 313.21 155.53 314.98C161.71 316.74 212.94 329.11 212.94 329.11L208.51 363.09C207.06 374.22 203.45 384.88 198.83 395.12C191.38 411.62 202.42 463.32 212.94 473.09C222.1 481.6 234.14 483.69 220.89 498.71C207.64 513.73 184.68 526.98 137.86 522.56C91.04 518.14 84.86 519.03 84.86 511.96C84.86 504.89 101.52 412.14 96.22 406.84C90.92 401.54 88.27 396.24 88.27 393.59C88.27 391.82 82.74 371.9 79.08 358.88C78.42 356.61 77.98 354.28 77.77 351.92C77.55 349.57 77.56 347.2 77.8 344.85C78.04 342.49 78.5 340.17 79.18 337.9C79.86 335.64 80.75 333.44 81.84 331.35C83.5 328.24 85.4 325.86 87.39 325.58C93.57 324.69 89.28 320.28 93.69 320.28C98.11 320.28 100.76 321.16 103.41 320.28L111.36 317.63Z" />
	<path id="Layer" class="shp5" d="M179.06 250.87C179.06 250.87 178.26 207.51 135.7 228.04C135.7 228.04 102.98 226.89 98.4 268.28L93.97 311.62L98.71 308.06L101.89 312.96L110.56 313.84L113.09 306.22L116.09 314.58L185.54 311.33C185.54 311.33 152.21 297.71 146.94 265.29L153.69 270.6L179.06 250.87Z" />
	<path id="Layer" class="shp5" d="M99.07 251.25C89.45 251.25 81.68 243.48 81.68 233.86C81.68 224.24 89.45 216.46 99.07 216.46C108.69 216.46 116.47 224.24 116.47 233.86C116.47 243.48 108.69 251.25 99.07 251.25Z" />
	<path id="Layer" class="shp5" d="M116.19 227.03C115.73 224.89 114.87 222.85 113.65 221.03C112.44 219.21 110.89 217.63 109.08 216.38C107.28 215.14 105.26 214.24 103.13 213.74C100.99 213.25 98.78 213.16 96.62 213.48C96.96 213.39 97.31 213.28 97.67 213.2C102.18 212.24 106.89 213.11 110.76 215.62C114.63 218.12 117.35 222.07 118.31 226.58C119.28 231.09 118.41 235.8 115.9 239.67C113.39 243.55 109.45 246.26 104.93 247.23C104.57 247.3 104.22 247.35 103.86 247.4C105.97 246.81 107.95 245.83 109.7 244.5C111.44 243.18 112.92 241.53 114.06 239.66C115.19 237.78 115.96 235.71 116.33 233.55C116.69 231.39 116.64 229.18 116.19 227.03Z" />
	<path id="Layer" class="shp5" d="M541.81 105.14C525.96 105.14 513.14 92.32 513.14 76.47C513.14 60.61 525.96 47.79 541.81 47.79C557.67 47.79 570.49 60.61 570.49 76.47C570.49 92.32 557.67 105.14 541.81 105.14Z" />
	<path id="Layer" class="shp6" d="M556.91 95.56C556.91 95.56 556.48 113.26 558.2 113.69C559.93 114.12 534.46 121.03 534.46 121.03L531.87 96.85L556.91 95.56Z" />
	<path id="Layer" class="shp6" d="M355.74 246.65C355.74 246.65 336.75 246.65 336.31 244.49C335.88 242.33 332 262.19 332 262.19L339.77 264.78C339.77 264.78 354.45 258.3 355.74 258.3C357.04 258.3 355.74 246.65 355.74 246.65Z" />
	<path id="Layer" class="shp5" d="M335.02 254.42C335.02 254.42 338.47 242.76 342.79 242.33C342.79 242.33 328.11 232.83 327.68 229.81C327.25 226.79 322.07 219.02 319.91 221.61C317.75 224.2 317.75 265.21 321.64 269.53C325.52 273.84 342.79 263.46 342.79 263.46C342.79 263.46 332 258.74 335.02 254.42Z" />
	<path id="Layer" class="shp6" d="M569.43 419.76L572.88 438.32L556.91 440.91L556.91 419.76L569.43 419.76L569.43 419.76Z" />
	<path id="Layer" class="shp5" d="M569.43 436.16C569.43 436.16 572.02 427.96 573.74 429.25C575.47 430.55 578.06 438.75 577.63 440.91C577.2 443.07 574.18 459.9 575.47 462.93C576.77 465.95 569 481.49 559.07 480.19C549.14 478.9 550 470.26 550 470.26L553.46 456.88L554.75 435.73C554.75 435.73 565.97 434 569.43 436.16Z" />
	<path id="Layer" class="shp5" d="M551.84 58.15C545.28 58.15 539.98 52.85 539.98 46.29C539.98 39.73 545.28 34.42 551.84 34.42C558.4 34.42 563.71 39.73 563.71 46.29C563.71 52.85 558.4 58.15 551.84 58.15Z" />
	<path id="Layer" class="shp5" d="M567.66 39.86C567.66 38.41 567.4 36.97 566.87 35.61C566.35 34.25 565.59 33 564.61 31.92C563.64 30.84 562.48 29.95 561.18 29.29C559.89 28.63 558.48 28.21 557.03 28.06C557.14 28.05 557.24 28.04 557.34 28.03C557.44 28.02 557.55 28.02 557.65 28.01C557.75 28.01 557.86 28 557.96 28C558.06 28 558.17 28 558.27 28C561.41 28 564.43 29.25 566.65 31.48C568.87 33.7 570.12 36.72 570.12 39.86C570.12 43.01 568.87 46.02 566.65 48.25C564.43 50.47 561.41 51.72 558.27 51.73C558.17 51.73 558.06 51.72 557.96 51.72C557.86 51.72 557.75 51.72 557.65 51.71C557.55 51.7 557.44 51.7 557.34 51.69C557.24 51.68 557.14 51.67 557.03 51.66C558.48 51.51 559.89 51.09 561.18 50.43C562.48 49.77 563.64 48.88 564.61 47.8C565.59 46.72 566.35 45.47 566.87 44.11C567.4 42.76 567.66 41.32 567.66 39.86Z" />
	<path id="Layer" class="shp6" d="M541.8 107.64C531.77 107.64 523.67 99.54 523.67 89.51C523.67 79.49 531.77 71.38 541.8 71.38C551.83 71.38 559.93 79.49 559.93 89.51C559.93 99.54 551.83 107.64 541.8 107.64Z" />
	<path id="Layer" class="shp5" d="M577.63 215.57C577.63 215.57 576.77 237.15 573.31 248.37C569.86 259.6 557.41 339.53 560 345.58C562.59 351.62 575.9 418.46 572.88 422.35C569.86 426.23 555.61 424.94 555.61 424.94L536.26 343.85C536.26 343.85 540.07 254.42 508.13 252.26C476.18 250.1 423.95 248.81 423.95 248.81C423.95 248.81 390.28 258.74 375.17 258.3C360.06 257.87 351.42 262.19 351.42 262.19L348.83 244.49L415.75 229.81C415.75 229.81 477.05 208.66 510.72 214.27C544.39 219.88 577.63 215.57 577.63 215.57Z" />
	<path id="Layer" class="shp7" d="M553.46 108.08C553.46 108.08 558.64 105.05 559.93 108.08C561.23 111.1 570.29 113.69 573.74 111.1C577.2 108.51 585.83 111.96 585.83 111.96L595.33 140.02C595.33 140.02 590.58 164.2 586.26 177.58C581.95 190.96 580.22 218.59 581.95 221.18C583.67 223.77 547.41 234.13 529.71 227.65C512.01 221.18 508.13 213.84 508.13 213.84C508.13 213.84 527.55 186.21 521.08 173.26C514.6 160.31 519.78 145.63 519.78 145.63L517.19 130.95L531.87 122.75C531.87 122.75 532.73 114.98 536.19 114.98C539.64 114.98 553.46 108.08 553.46 108.08Z" />
	<path id="Layer" class="shp7" d="M523.67 131.39L517.19 131.39C516.3 132.22 515.51 133.17 514.86 134.21C514.2 135.24 513.68 136.35 513.3 137.52C512.93 138.68 512.7 139.89 512.63 141.12C512.56 142.34 512.64 143.57 512.88 144.77C514.6 152.97 522.39 180.16 522.39 180.16L528.85 163.33L523.67 131.39Z" />
	<path id="Layer" class="shp6" d="M505.07 200.71C505.07 200.71 492.16 214.7 501.65 222.04C511.15 229.38 513.49 205.21 513.49 205.21L505.07 200.71Z" />
	<path id="Layer" class="shp7" d="M523.67 171.53L520.65 183.62L515.47 193.12C515.47 193.12 497.77 204.77 497.77 209.09C497.77 209.09 505.54 199.16 515.47 209.09L524.32 187.72L523.67 171.53Z" />
	<path id="Layer" class="shp5" d="M538.48 82.25C527.54 82.25 518.7 76.95 518.7 70.39C518.7 63.83 527.54 58.52 538.48 58.52C549.41 58.52 558.25 63.83 558.25 70.39C558.25 76.95 549.41 82.25 538.48 82.25Z" />
	<path id="Layer" class="shp6" d="M577.63 71.38C577.63 71.38 563.82 63.61 558.2 69.22C552.59 74.83 575.04 83.47 575.04 83.47L577.63 71.38Z" />
	<path id="Layer" class="shp7" d="M582.81 114.12L585.83 111.96C585.83 111.96 589.29 106.78 592.31 108.51C595.33 110.23 613.03 102.03 613.03 102.03C613.03 102.03 606.55 105.05 606.55 99.87C606.55 94.69 605.69 95.56 601.37 95.56C597.06 95.56 597.06 97.71 595.33 94.69C593.6 91.67 594.47 89.94 591.44 91.67C588.42 93.4 584.97 92.1 584.11 90.81C583.24 89.51 567.7 87.35 567.7 87.35C567.7 87.35 573.74 69.65 575.04 68.36C576.33 67.06 609.58 81.74 609.58 81.74C609.58 81.74 651.45 93.4 640.66 106.78C629.86 120.16 591.01 140.45 591.01 140.45L582.81 114.12Z" />
	<path id="Layer" class="shp2" d="M663.61 0L741.49 0.48C741.49 0.48 869.68 68.69 779.71 209.94C779.71 209.94 742.94 201.23 702.31 231.22C702.31 231.22 678.61 5.32 663.61 0Z" />
	<path id="Layer" class="shp8" d="M686.78 0.71C700.73 58.99 716.5 209.31 716.5 209.31C752.81 182.52 786 186.61 792.66 187.79C791.68 189.73 790.67 191.67 789.64 193.59C788.61 195.51 787.55 197.41 786.47 199.31C785.39 201.2 784.29 203.08 783.16 204.95C782.03 206.81 780.88 208.67 779.71 210.5C778.53 212.34 742.94 201.8 702.31 231.79C702.31 231.79 678.61 5.88 663.61 0.56L686.78 0.71Z" />
	<path id="Layer" class="shp1" d="M780.19 73.04L786.96 105.94L872.07 90.47L872.1 90.46L874.03 51.76L857.59 51.76L780.19 73.04L780.19 73.04Z" />
	<path id="Layer" class="shp8" d="M858.96 51.76L872.07 90.47L872.1 90.46L874.03 51.76L858.96 51.76L858.96 51.76Z" />
	<path id="Layer" class="shp1" d="M783.09 109.81C777.74 109.81 773.42 99.86 773.42 87.56C773.42 75.25 777.74 65.3 783.09 65.3C788.44 65.3 792.77 75.25 792.77 87.56C792.77 99.86 788.44 109.81 783.09 109.81Z" />
	<path id="Layer" class="shp1" d="M833.4 557.8C833.01 557.8 832.63 557.72 832.27 557.57C831.91 557.42 831.58 557.2 831.31 556.93C831.03 556.66 830.82 556.33 830.67 555.97C830.52 555.61 830.44 555.23 830.44 554.84L830.44 87.56C830.44 86.77 830.75 86.02 831.31 85.46C831.86 84.91 832.61 84.6 833.4 84.6C834.18 84.6 834.94 84.91 835.49 85.46C836.04 86.02 836.36 86.77 836.36 87.56L836.36 554.84C836.36 555.23 836.28 555.61 836.13 555.97C835.98 556.33 835.77 556.66 835.49 556.93C835.22 557.2 834.89 557.42 834.53 557.57C834.17 557.72 833.79 557.8 833.4 557.8L833.4 557.8Z" />
	<path id="Layer" class="shp1" d="M792.77 640.03C792.33 640.03 791.9 639.94 791.51 639.75C791.11 639.56 790.76 639.29 790.48 638.96C790.21 638.62 790.01 638.22 789.9 637.8C789.79 637.38 789.78 636.94 789.86 636.51L827.61 442.99L728.48 594.19C728.05 594.85 727.38 595.31 726.61 595.47C725.84 595.63 725.04 595.48 724.39 595.05C723.73 594.62 723.27 593.94 723.11 593.17C722.95 592.4 723.11 591.6 723.54 590.95L723.54 590.95L830.93 427.15C831.3 426.57 831.87 426.15 832.52 425.94C833.17 425.74 833.88 425.77 834.51 426.03C835.15 426.29 835.67 426.76 836 427.36C836.33 427.96 836.43 428.66 836.3 429.33L795.67 637.64C795.6 637.97 795.48 638.29 795.31 638.59C795.13 638.88 794.91 639.14 794.65 639.35C794.39 639.57 794.09 639.74 793.77 639.86C793.45 639.97 793.11 640.03 792.77 640.03Z" />
	<path id="Layer" class="shp1" d="M945.63 603.27C945.38 603.27 945.14 603.24 944.9 603.18C944.66 603.12 944.44 603.03 944.22 602.91C944 602.8 943.8 602.65 943.62 602.49C943.44 602.32 943.29 602.13 943.15 601.93L830.93 430.69C830.49 430.03 830.34 429.23 830.5 428.46C830.66 427.7 831.12 427.02 831.78 426.59C832.43 426.16 833.23 426.01 834 426.17C834.77 426.33 835.44 426.79 835.87 427.45L835.87 427.45L948.1 598.69C948.39 599.13 948.56 599.65 948.58 600.18C948.6 600.72 948.48 601.24 948.23 601.71C947.97 602.18 947.6 602.57 947.14 602.85C946.68 603.12 946.16 603.27 945.63 603.27Z" />
</svg>